<mxfile host="65bd71144e">
    <diagram id="GEBRjjcynune3DhPKc7T" name="Page-1">
        <mxGraphModel dx="1959" dy="684" grid="1" gridSize="10" guides="1" tooltips="1" connect="1" arrows="1" fold="1" page="1" pageScale="1" pageWidth="850" pageHeight="1100" math="0" shadow="0">
            <root>
                <mxCell id="0"/>
                <mxCell id="1" parent="0"/>
                <mxCell id="2" value="" style="rounded=0;whiteSpace=wrap;html=1;" parent="1" vertex="1">
                    <mxGeometry x="170" y="20" width="510" height="180" as="geometry"/>
                </mxCell>
                <mxCell id="7" value="" style="group" parent="1" vertex="1" connectable="0">
                    <mxGeometry x="220" y="50" width="450" height="140" as="geometry"/>
                </mxCell>
                <mxCell id="3" value="&lt;font style=&quot;font-size: 21px;&quot;&gt;&lt;b&gt;&lt;i&gt;Link for Cold Coffee&lt;/i&gt;&lt;/b&gt;&lt;/font&gt;" style="rounded=1;whiteSpace=wrap;html=1;" parent="7" vertex="1">
                    <mxGeometry y="80" width="210" height="60" as="geometry"/>
                </mxCell>
                <mxCell id="5" value="&lt;font style=&quot;font-size: 21px;&quot;&gt;&lt;b&gt;&lt;i&gt;Link for the hot coffee&lt;/i&gt;&lt;/b&gt;&lt;/font&gt;" style="rounded=1;whiteSpace=wrap;html=1;" parent="7" vertex="1">
                    <mxGeometry x="220" y="80" width="230" height="60" as="geometry"/>
                </mxCell>
                <mxCell id="6" value="&lt;font style=&quot;font-size: 24px;&quot;&gt;Menu sections&lt;/font&gt;" style="text;html=1;strokeColor=none;fillColor=none;align=center;verticalAlign=middle;whiteSpace=wrap;rounded=0;fontStyle=5;horizontal=1;" parent="7" vertex="1">
                    <mxGeometry x="110" width="220" height="30" as="geometry"/>
                </mxCell>
                <mxCell id="75" value="" style="group" parent="1" vertex="1" connectable="0">
                    <mxGeometry x="-570" y="320" width="930" height="770" as="geometry"/>
                </mxCell>
                <mxCell id="8" value="" style="rounded=0;whiteSpace=wrap;html=1;fontSize=24;" parent="75" vertex="1">
                    <mxGeometry width="930" height="770" as="geometry"/>
                </mxCell>
                <mxCell id="11" value="" style="shape=rect;fillColor=none;shadow=1;fontSize=24;" parent="75" vertex="1">
                    <mxGeometry x="600" y="130" width="230" height="270" as="geometry"/>
                </mxCell>
                <mxCell id="12" value="" style="shape=rect;strokeColor=#eeeeee;fillColor=#ffffff;resizeWidth=1;fontSize=24;" parent="11" vertex="1">
                    <mxGeometry width="230" height="70" relative="1" as="geometry"/>
                </mxCell>
                <mxCell id="13" value="" style="shape=ellipse;strokeColor=none;fillColor=#999999;fontSize=24;" parent="12" vertex="1">
                    <mxGeometry width="40" height="40" relative="1" as="geometry">
                        <mxPoint x="15" y="15" as="offset"/>
                    </mxGeometry>
                </mxCell>
                <mxCell id="14" value="Title" style="text;fontSize=24;" parent="12" vertex="1">
                    <mxGeometry width="235" height="20" relative="1" as="geometry">
                        <mxPoint x="65" y="15" as="offset"/>
                    </mxGeometry>
                </mxCell>
                <mxCell id="15" value="Subhead" style="text;fontColor=#999999;fontSize=24;" parent="12" vertex="1">
                    <mxGeometry width="235" height="20" relative="1" as="geometry">
                        <mxPoint x="65" y="35" as="offset"/>
                    </mxGeometry>
                </mxCell>
                <mxCell id="16" value="Greyhound divisively hello couldly wonderfully marginally far upon excluding." style="shape=rect;strokeColor=#eeeeee;fillColor=#ffffff;;whiteSpace=wrap;align=left;spacingLeft=16;fontColor=#666666;verticalAlign=top;spacingTop=10;fontSize=13;spacingRight=16;container=1;" parent="11" vertex="1">
                    <mxGeometry y="178.57142857142858" width="230" height="91.42857142857146" as="geometry"/>
                </mxCell>
                <mxCell id="17" value="" style="shape=rect;strokeColor=#eeeeee;fillColor=#ffffff;;whiteSpace=wrap;align=left;spacingLeft=14;fontColor=#BDBDBD;resizeWidth=1;fontSize=24;" parent="11" vertex="1">
                    <mxGeometry y="1" width="230" height="48" relative="1" as="geometry">
                        <mxPoint y="-48" as="offset"/>
                    </mxGeometry>
                </mxCell>
                <mxCell id="22" value="Update" style="shape=rect;strokeColor=none;fillColor=#F6BBDE;fontColor=#6A2F52;fontStyle=1;fontSize=13;" parent="17" vertex="1">
                    <mxGeometry x="1" y="1" width="69" height="29" relative="1" as="geometry">
                        <mxPoint x="-220" y="-40" as="offset"/>
                    </mxGeometry>
                </mxCell>
                <mxCell id="23" value="Delete" style="shape=rect;strokeColor=none;fillColor=#F37DC3;fontColor=#8C155C;fontStyle=1;fontSize=13;" parent="17" vertex="1">
                    <mxGeometry x="1" y="1" width="70" height="36" relative="1" as="geometry">
                        <mxPoint x="-75" y="-42" as="offset"/>
                    </mxGeometry>
                </mxCell>
                <mxCell id="25" value="" style="shape=rect;fillColor=none;shadow=1;fontSize=24;" parent="75" vertex="1">
                    <mxGeometry x="90" y="120" width="230" height="270" as="geometry"/>
                </mxCell>
                <mxCell id="26" value="" style="shape=rect;strokeColor=#eeeeee;fillColor=#ffffff;resizeWidth=1;fontSize=24;" parent="25" vertex="1">
                    <mxGeometry width="230" height="70" relative="1" as="geometry"/>
                </mxCell>
                <mxCell id="27" value="" style="shape=ellipse;strokeColor=none;fillColor=#999999;fontSize=24;" parent="26" vertex="1">
                    <mxGeometry width="40" height="40" relative="1" as="geometry">
                        <mxPoint x="15" y="15" as="offset"/>
                    </mxGeometry>
                </mxCell>
                <mxCell id="28" value="Title" style="text;fontSize=24;" parent="26" vertex="1">
                    <mxGeometry width="235" height="20" relative="1" as="geometry">
                        <mxPoint x="65" y="15" as="offset"/>
                    </mxGeometry>
                </mxCell>
                <mxCell id="29" value="Subhead" style="text;fontColor=#999999;fontSize=24;" parent="26" vertex="1">
                    <mxGeometry width="235" height="20" relative="1" as="geometry">
                        <mxPoint x="65" y="35" as="offset"/>
                    </mxGeometry>
                </mxCell>
                <mxCell id="30" value="Greyhound divisively hello couldly wonderfully marginally far upon excluding." style="shape=rect;strokeColor=#eeeeee;fillColor=#ffffff;;whiteSpace=wrap;align=left;spacingLeft=16;fontColor=#666666;verticalAlign=top;spacingTop=10;fontSize=13;spacingRight=16;container=1;" parent="25" vertex="1">
                    <mxGeometry y="178.57142857142858" width="230" height="91.42857142857146" as="geometry"/>
                </mxCell>
                <mxCell id="31" value="" style="shape=rect;strokeColor=#eeeeee;fillColor=#ffffff;;whiteSpace=wrap;align=left;spacingLeft=14;fontColor=#BDBDBD;resizeWidth=1;fontSize=24;" parent="25" vertex="1">
                    <mxGeometry y="1" width="230" height="48" relative="1" as="geometry">
                        <mxPoint y="-48" as="offset"/>
                    </mxGeometry>
                </mxCell>
                <mxCell id="32" value="Update" style="shape=rect;strokeColor=none;fillColor=#F6BBDE;fontColor=#6A2F52;fontStyle=1;fontSize=13;" parent="31" vertex="1">
                    <mxGeometry x="1" y="1" width="69" height="29" relative="1" as="geometry">
                        <mxPoint x="-220" y="-40" as="offset"/>
                    </mxGeometry>
                </mxCell>
                <mxCell id="33" value="Delete" style="shape=rect;strokeColor=none;fillColor=#F37DC3;fontColor=#8C155C;fontStyle=1;fontSize=13;" parent="31" vertex="1">
                    <mxGeometry x="1" y="1" width="70" height="36" relative="1" as="geometry">
                        <mxPoint x="-75" y="-42" as="offset"/>
                    </mxGeometry>
                </mxCell>
                <mxCell id="34" value="" style="shape=rect;fillColor=none;shadow=1;fontSize=24;" parent="75" vertex="1">
                    <mxGeometry x="350" y="130" width="230" height="270" as="geometry"/>
                </mxCell>
                <mxCell id="35" value="" style="shape=rect;strokeColor=#eeeeee;fillColor=#ffffff;resizeWidth=1;fontSize=24;" parent="34" vertex="1">
                    <mxGeometry width="230" height="70" relative="1" as="geometry"/>
                </mxCell>
                <mxCell id="36" value="" style="shape=ellipse;strokeColor=none;fillColor=#999999;fontSize=24;" parent="35" vertex="1">
                    <mxGeometry width="40" height="40" relative="1" as="geometry">
                        <mxPoint x="15" y="15" as="offset"/>
                    </mxGeometry>
                </mxCell>
                <mxCell id="37" value="Title" style="text;fontSize=24;" parent="35" vertex="1">
                    <mxGeometry width="235" height="20" relative="1" as="geometry">
                        <mxPoint x="65" y="15" as="offset"/>
                    </mxGeometry>
                </mxCell>
                <mxCell id="38" value="Subhead" style="text;fontColor=#999999;fontSize=24;" parent="35" vertex="1">
                    <mxGeometry width="235" height="20" relative="1" as="geometry">
                        <mxPoint x="65" y="35" as="offset"/>
                    </mxGeometry>
                </mxCell>
                <mxCell id="39" value="Greyhound divisively hello couldly wonderfully marginally far upon excluding." style="shape=rect;strokeColor=#eeeeee;fillColor=#ffffff;;whiteSpace=wrap;align=left;spacingLeft=16;fontColor=#666666;verticalAlign=top;spacingTop=10;fontSize=13;spacingRight=16;container=1;" parent="34" vertex="1">
                    <mxGeometry y="178.57142857142858" width="230" height="91.42857142857146" as="geometry"/>
                </mxCell>
                <mxCell id="40" value="" style="shape=rect;strokeColor=#eeeeee;fillColor=#ffffff;;whiteSpace=wrap;align=left;spacingLeft=14;fontColor=#BDBDBD;resizeWidth=1;fontSize=24;" parent="34" vertex="1">
                    <mxGeometry y="1" width="230" height="48" relative="1" as="geometry">
                        <mxPoint y="-48" as="offset"/>
                    </mxGeometry>
                </mxCell>
                <mxCell id="41" value="Update" style="shape=rect;strokeColor=none;fillColor=#F6BBDE;fontColor=#6A2F52;fontStyle=1;fontSize=13;" parent="40" vertex="1">
                    <mxGeometry x="1" y="1" width="69" height="29" relative="1" as="geometry">
                        <mxPoint x="-220" y="-40" as="offset"/>
                    </mxGeometry>
                </mxCell>
                <mxCell id="42" value="Delete" style="shape=rect;strokeColor=none;fillColor=#F37DC3;fontColor=#8C155C;fontStyle=1;fontSize=13;" parent="40" vertex="1">
                    <mxGeometry x="1" y="1" width="70" height="36" relative="1" as="geometry">
                        <mxPoint x="-75" y="-42" as="offset"/>
                    </mxGeometry>
                </mxCell>
                <mxCell id="43" value="" style="shape=rect;fillColor=none;shadow=1;fontSize=24;" parent="75" vertex="1">
                    <mxGeometry x="90" y="430" width="230" height="270" as="geometry"/>
                </mxCell>
                <mxCell id="44" value="" style="shape=rect;strokeColor=#eeeeee;fillColor=#ffffff;resizeWidth=1;fontSize=24;" parent="43" vertex="1">
                    <mxGeometry width="230" height="70" relative="1" as="geometry"/>
                </mxCell>
                <mxCell id="45" value="" style="shape=ellipse;strokeColor=none;fillColor=#999999;fontSize=24;" parent="44" vertex="1">
                    <mxGeometry width="40" height="40" relative="1" as="geometry">
                        <mxPoint x="15" y="15" as="offset"/>
                    </mxGeometry>
                </mxCell>
                <mxCell id="46" value="Title" style="text;fontSize=24;" parent="44" vertex="1">
                    <mxGeometry width="235" height="20" relative="1" as="geometry">
                        <mxPoint x="65" y="15" as="offset"/>
                    </mxGeometry>
                </mxCell>
                <mxCell id="47" value="Subhead" style="text;fontColor=#999999;fontSize=24;" parent="44" vertex="1">
                    <mxGeometry width="235" height="20" relative="1" as="geometry">
                        <mxPoint x="65" y="35" as="offset"/>
                    </mxGeometry>
                </mxCell>
                <mxCell id="48" value="Greyhound divisively hello couldly wonderfully marginally far upon excluding." style="shape=rect;strokeColor=#eeeeee;fillColor=#ffffff;;whiteSpace=wrap;align=left;spacingLeft=16;fontColor=#666666;verticalAlign=top;spacingTop=10;fontSize=13;spacingRight=16;container=1;" parent="43" vertex="1">
                    <mxGeometry y="178.57142857142858" width="230" height="91.42857142857146" as="geometry"/>
                </mxCell>
                <mxCell id="49" value="" style="shape=rect;strokeColor=#eeeeee;fillColor=#ffffff;;whiteSpace=wrap;align=left;spacingLeft=14;fontColor=#BDBDBD;resizeWidth=1;fontSize=24;" parent="43" vertex="1">
                    <mxGeometry y="1" width="230" height="48" relative="1" as="geometry">
                        <mxPoint y="-48" as="offset"/>
                    </mxGeometry>
                </mxCell>
                <mxCell id="50" value="Update" style="shape=rect;strokeColor=none;fillColor=#F6BBDE;fontColor=#6A2F52;fontStyle=1;fontSize=13;" parent="49" vertex="1">
                    <mxGeometry x="1" y="1" width="69" height="29" relative="1" as="geometry">
                        <mxPoint x="-220" y="-40" as="offset"/>
                    </mxGeometry>
                </mxCell>
                <mxCell id="51" value="Delete" style="shape=rect;strokeColor=none;fillColor=#F37DC3;fontColor=#8C155C;fontStyle=1;fontSize=13;" parent="49" vertex="1">
                    <mxGeometry x="1" y="1" width="70" height="36" relative="1" as="geometry">
                        <mxPoint x="-75" y="-42" as="offset"/>
                    </mxGeometry>
                </mxCell>
                <mxCell id="54" value="" style="shape=rect;fillColor=none;shadow=1;fontSize=24;" parent="75" vertex="1">
                    <mxGeometry x="350" y="430" width="230" height="270" as="geometry"/>
                </mxCell>
                <mxCell id="55" value="" style="shape=rect;strokeColor=#eeeeee;fillColor=#ffffff;resizeWidth=1;fontSize=24;" parent="54" vertex="1">
                    <mxGeometry width="230" height="70" relative="1" as="geometry"/>
                </mxCell>
                <mxCell id="56" value="" style="shape=ellipse;strokeColor=none;fillColor=#999999;fontSize=24;" parent="55" vertex="1">
                    <mxGeometry width="40" height="40" relative="1" as="geometry">
                        <mxPoint x="15" y="15" as="offset"/>
                    </mxGeometry>
                </mxCell>
                <mxCell id="57" value="Title" style="text;fontSize=24;" parent="55" vertex="1">
                    <mxGeometry width="235" height="20" relative="1" as="geometry">
                        <mxPoint x="65" y="15" as="offset"/>
                    </mxGeometry>
                </mxCell>
                <mxCell id="58" value="Subhead" style="text;fontColor=#999999;fontSize=24;" parent="55" vertex="1">
                    <mxGeometry width="235" height="20" relative="1" as="geometry">
                        <mxPoint x="65" y="35" as="offset"/>
                    </mxGeometry>
                </mxCell>
                <mxCell id="59" value="Greyhound divisively hello couldly wonderfully marginally far upon excluding." style="shape=rect;strokeColor=#eeeeee;fillColor=#ffffff;;whiteSpace=wrap;align=left;spacingLeft=16;fontColor=#666666;verticalAlign=top;spacingTop=10;fontSize=13;spacingRight=16;container=1;" parent="54" vertex="1">
                    <mxGeometry y="178.57142857142858" width="230" height="91.42857142857146" as="geometry"/>
                </mxCell>
                <mxCell id="60" value="" style="shape=rect;strokeColor=#eeeeee;fillColor=#ffffff;;whiteSpace=wrap;align=left;spacingLeft=14;fontColor=#BDBDBD;resizeWidth=1;fontSize=24;" parent="54" vertex="1">
                    <mxGeometry y="1" width="230" height="48" relative="1" as="geometry">
                        <mxPoint y="-48" as="offset"/>
                    </mxGeometry>
                </mxCell>
                <mxCell id="61" value="Update" style="shape=rect;strokeColor=none;fillColor=#F6BBDE;fontColor=#6A2F52;fontStyle=1;fontSize=13;" parent="60" vertex="1">
                    <mxGeometry x="1" y="1" width="69" height="29" relative="1" as="geometry">
                        <mxPoint x="-220" y="-40" as="offset"/>
                    </mxGeometry>
                </mxCell>
                <mxCell id="62" value="Delete" style="shape=rect;strokeColor=none;fillColor=#F37DC3;fontColor=#8C155C;fontStyle=1;fontSize=13;" parent="60" vertex="1">
                    <mxGeometry x="1" y="1" width="70" height="36" relative="1" as="geometry">
                        <mxPoint x="-75" y="-42" as="offset"/>
                    </mxGeometry>
                </mxCell>
                <mxCell id="63" value="" style="shape=rect;fillColor=none;shadow=1;fontSize=24;" parent="75" vertex="1">
                    <mxGeometry x="610" y="430" width="230" height="270" as="geometry"/>
                </mxCell>
                <mxCell id="64" value="" style="shape=rect;strokeColor=#eeeeee;fillColor=#ffffff;resizeWidth=1;fontSize=24;" parent="63" vertex="1">
                    <mxGeometry width="230" height="70" relative="1" as="geometry"/>
                </mxCell>
                <mxCell id="65" value="" style="shape=ellipse;strokeColor=none;fillColor=#999999;fontSize=24;" parent="64" vertex="1">
                    <mxGeometry width="40" height="40" relative="1" as="geometry">
                        <mxPoint x="15" y="15" as="offset"/>
                    </mxGeometry>
                </mxCell>
                <mxCell id="66" value="Title" style="text;fontSize=24;" parent="64" vertex="1">
                    <mxGeometry width="235" height="20" relative="1" as="geometry">
                        <mxPoint x="65" y="15" as="offset"/>
                    </mxGeometry>
                </mxCell>
                <mxCell id="67" value="Subhead" style="text;fontColor=#999999;fontSize=24;" parent="64" vertex="1">
                    <mxGeometry width="235" height="20" relative="1" as="geometry">
                        <mxPoint x="65" y="35" as="offset"/>
                    </mxGeometry>
                </mxCell>
                <mxCell id="72" style="edgeStyle=none;html=1;exitX=0.5;exitY=0;exitDx=0;exitDy=0;fontSize=24;" parent="63" source="68" target="63" edge="1">
                    <mxGeometry relative="1" as="geometry"/>
                </mxCell>
                <mxCell id="68" value="Greyhound divisively hello couldly wonderfully marginally far upon excluding." style="shape=rect;strokeColor=#eeeeee;fillColor=#ffffff;;whiteSpace=wrap;align=left;spacingLeft=16;fontColor=#666666;verticalAlign=top;spacingTop=10;fontSize=13;spacingRight=16;container=1;" parent="63" vertex="1">
                    <mxGeometry y="178.57142857142858" width="230" height="91.42857142857146" as="geometry"/>
                </mxCell>
                <mxCell id="69" value="" style="shape=rect;strokeColor=#eeeeee;fillColor=#ffffff;;whiteSpace=wrap;align=left;spacingLeft=14;fontColor=#BDBDBD;resizeWidth=1;fontSize=24;" parent="63" vertex="1">
                    <mxGeometry y="1" width="230" height="48" relative="1" as="geometry">
                        <mxPoint y="-48" as="offset"/>
                    </mxGeometry>
                </mxCell>
                <mxCell id="70" value="Update" style="shape=rect;strokeColor=none;fillColor=#F6BBDE;fontColor=#6A2F52;fontStyle=1;fontSize=13;" parent="69" vertex="1">
                    <mxGeometry x="1" y="1" width="69" height="29" relative="1" as="geometry">
                        <mxPoint x="-220" y="-40" as="offset"/>
                    </mxGeometry>
                </mxCell>
                <mxCell id="71" value="Delete" style="shape=rect;strokeColor=none;fillColor=#F37DC3;fontColor=#8C155C;fontStyle=1;fontSize=13;" parent="69" vertex="1">
                    <mxGeometry x="1" y="1" width="70" height="36" relative="1" as="geometry">
                        <mxPoint x="-75" y="-42" as="offset"/>
                    </mxGeometry>
                </mxCell>
                <mxCell id="73" value="Text" style="text;html=1;strokeColor=none;fillColor=none;align=center;verticalAlign=middle;whiteSpace=wrap;rounded=0;fontSize=24;" parent="75" vertex="1">
                    <mxGeometry x="440" y="210" width="60" height="30" as="geometry"/>
                </mxCell>
                <mxCell id="74" value="&lt;font style=&quot;font-size: 44px;&quot;&gt;&lt;b&gt;&lt;u&gt;Cold&amp;nbsp; Coffee&lt;/u&gt;&lt;/b&gt;&lt;/font&gt;" style="text;html=1;strokeColor=none;fillColor=none;align=center;verticalAlign=middle;whiteSpace=wrap;rounded=0;fontSize=24;" parent="75" vertex="1">
                    <mxGeometry x="325" y="40" width="290" height="30" as="geometry"/>
                </mxCell>
                <mxCell id="76" value="" style="group" parent="1" vertex="1" connectable="0">
                    <mxGeometry x="480" y="320" width="930" height="770" as="geometry"/>
                </mxCell>
                <mxCell id="77" value="" style="rounded=0;whiteSpace=wrap;html=1;fontSize=24;" parent="76" vertex="1">
                    <mxGeometry width="930" height="770" as="geometry"/>
                </mxCell>
                <mxCell id="78" value="" style="shape=rect;fillColor=none;shadow=1;fontSize=24;" parent="76" vertex="1">
                    <mxGeometry x="600" y="130" width="230" height="270" as="geometry"/>
                </mxCell>
                <mxCell id="79" value="" style="shape=rect;strokeColor=#eeeeee;fillColor=#ffffff;resizeWidth=1;fontSize=24;" parent="78" vertex="1">
                    <mxGeometry width="230" height="70" relative="1" as="geometry"/>
                </mxCell>
                <mxCell id="80" value="" style="shape=ellipse;strokeColor=none;fillColor=#999999;fontSize=24;" parent="79" vertex="1">
                    <mxGeometry width="40" height="40" relative="1" as="geometry">
                        <mxPoint x="15" y="15" as="offset"/>
                    </mxGeometry>
                </mxCell>
                <mxCell id="81" value="Title" style="text;fontSize=24;" parent="79" vertex="1">
                    <mxGeometry width="235" height="20" relative="1" as="geometry">
                        <mxPoint x="65" y="15" as="offset"/>
                    </mxGeometry>
                </mxCell>
                <mxCell id="82" value="Subhead" style="text;fontColor=#999999;fontSize=24;" parent="79" vertex="1">
                    <mxGeometry width="235" height="20" relative="1" as="geometry">
                        <mxPoint x="65" y="35" as="offset"/>
                    </mxGeometry>
                </mxCell>
                <mxCell id="83" value="Greyhound divisively hello couldly wonderfully marginally far upon excluding." style="shape=rect;strokeColor=#eeeeee;fillColor=#ffffff;;whiteSpace=wrap;align=left;spacingLeft=16;fontColor=#666666;verticalAlign=top;spacingTop=10;fontSize=13;spacingRight=16;container=1;" parent="78" vertex="1">
                    <mxGeometry y="178.57142857142858" width="230" height="91.42857142857146" as="geometry"/>
                </mxCell>
                <mxCell id="84" value="" style="shape=rect;strokeColor=#eeeeee;fillColor=#ffffff;;whiteSpace=wrap;align=left;spacingLeft=14;fontColor=#BDBDBD;resizeWidth=1;fontSize=24;" parent="78" vertex="1">
                    <mxGeometry y="1" width="230" height="48" relative="1" as="geometry">
                        <mxPoint y="-48" as="offset"/>
                    </mxGeometry>
                </mxCell>
                <mxCell id="85" value="Update" style="shape=rect;strokeColor=none;fillColor=#F6BBDE;fontColor=#6A2F52;fontStyle=1;fontSize=13;" parent="84" vertex="1">
                    <mxGeometry x="1" y="1" width="69" height="29" relative="1" as="geometry">
                        <mxPoint x="-220" y="-40" as="offset"/>
                    </mxGeometry>
                </mxCell>
                <mxCell id="86" value="Delete" style="shape=rect;strokeColor=none;fillColor=#F37DC3;fontColor=#8C155C;fontStyle=1;fontSize=13;" parent="84" vertex="1">
                    <mxGeometry x="1" y="1" width="70" height="36" relative="1" as="geometry">
                        <mxPoint x="-75" y="-42" as="offset"/>
                    </mxGeometry>
                </mxCell>
                <mxCell id="87" value="" style="shape=rect;fillColor=none;shadow=1;fontSize=24;" parent="76" vertex="1">
                    <mxGeometry x="90" y="120" width="230" height="270" as="geometry"/>
                </mxCell>
                <mxCell id="88" value="" style="shape=rect;strokeColor=#eeeeee;fillColor=#ffffff;resizeWidth=1;fontSize=24;" parent="87" vertex="1">
                    <mxGeometry width="230" height="70" relative="1" as="geometry"/>
                </mxCell>
                <mxCell id="89" value="" style="shape=ellipse;strokeColor=none;fillColor=#999999;fontSize=24;" parent="88" vertex="1">
                    <mxGeometry width="40" height="40" relative="1" as="geometry">
                        <mxPoint x="15" y="15" as="offset"/>
                    </mxGeometry>
                </mxCell>
                <mxCell id="90" value="Title" style="text;fontSize=24;" parent="88" vertex="1">
                    <mxGeometry width="235" height="20" relative="1" as="geometry">
                        <mxPoint x="65" y="15" as="offset"/>
                    </mxGeometry>
                </mxCell>
                <mxCell id="91" value="Subhead" style="text;fontColor=#999999;fontSize=24;" parent="88" vertex="1">
                    <mxGeometry width="235" height="20" relative="1" as="geometry">
                        <mxPoint x="65" y="35" as="offset"/>
                    </mxGeometry>
                </mxCell>
                <mxCell id="92" value="Greyhound divisively hello couldly wonderfully marginally far upon excluding." style="shape=rect;strokeColor=#eeeeee;fillColor=#ffffff;;whiteSpace=wrap;align=left;spacingLeft=16;fontColor=#666666;verticalAlign=top;spacingTop=10;fontSize=13;spacingRight=16;container=1;" parent="87" vertex="1">
                    <mxGeometry y="178.57142857142858" width="230" height="91.42857142857146" as="geometry"/>
                </mxCell>
                <mxCell id="93" value="" style="shape=rect;strokeColor=#eeeeee;fillColor=#ffffff;;whiteSpace=wrap;align=left;spacingLeft=14;fontColor=#BDBDBD;resizeWidth=1;fontSize=24;" parent="87" vertex="1">
                    <mxGeometry y="1" width="230" height="48" relative="1" as="geometry">
                        <mxPoint y="-48" as="offset"/>
                    </mxGeometry>
                </mxCell>
                <mxCell id="94" value="Update" style="shape=rect;strokeColor=none;fillColor=#F6BBDE;fontColor=#6A2F52;fontStyle=1;fontSize=13;" parent="93" vertex="1">
                    <mxGeometry x="1" y="1" width="69" height="29" relative="1" as="geometry">
                        <mxPoint x="-220" y="-40" as="offset"/>
                    </mxGeometry>
                </mxCell>
                <mxCell id="95" value="Delete" style="shape=rect;strokeColor=none;fillColor=#F37DC3;fontColor=#8C155C;fontStyle=1;fontSize=13;" parent="93" vertex="1">
                    <mxGeometry x="1" y="1" width="70" height="36" relative="1" as="geometry">
                        <mxPoint x="-75" y="-42" as="offset"/>
                    </mxGeometry>
                </mxCell>
                <mxCell id="96" value="" style="shape=rect;fillColor=none;shadow=1;fontSize=24;" parent="76" vertex="1">
                    <mxGeometry x="350" y="130" width="230" height="270" as="geometry"/>
                </mxCell>
                <mxCell id="97" value="" style="shape=rect;strokeColor=#eeeeee;fillColor=#ffffff;resizeWidth=1;fontSize=24;" parent="96" vertex="1">
                    <mxGeometry width="230" height="70" relative="1" as="geometry"/>
                </mxCell>
                <mxCell id="98" value="" style="shape=ellipse;strokeColor=none;fillColor=#999999;fontSize=24;" parent="97" vertex="1">
                    <mxGeometry width="40" height="40" relative="1" as="geometry">
                        <mxPoint x="15" y="15" as="offset"/>
                    </mxGeometry>
                </mxCell>
                <mxCell id="99" value="Title" style="text;fontSize=24;" parent="97" vertex="1">
                    <mxGeometry width="235" height="20" relative="1" as="geometry">
                        <mxPoint x="65" y="15" as="offset"/>
                    </mxGeometry>
                </mxCell>
                <mxCell id="100" value="Subhead" style="text;fontColor=#999999;fontSize=24;" parent="97" vertex="1">
                    <mxGeometry width="235" height="20" relative="1" as="geometry">
                        <mxPoint x="65" y="35" as="offset"/>
                    </mxGeometry>
                </mxCell>
                <mxCell id="101" value="Greyhound divisively hello couldly wonderfully marginally far upon excluding." style="shape=rect;strokeColor=#eeeeee;fillColor=#ffffff;;whiteSpace=wrap;align=left;spacingLeft=16;fontColor=#666666;verticalAlign=top;spacingTop=10;fontSize=13;spacingRight=16;container=1;" parent="96" vertex="1">
                    <mxGeometry y="178.57142857142858" width="230" height="91.42857142857146" as="geometry"/>
                </mxCell>
                <mxCell id="102" value="" style="shape=rect;strokeColor=#eeeeee;fillColor=#ffffff;;whiteSpace=wrap;align=left;spacingLeft=14;fontColor=#BDBDBD;resizeWidth=1;fontSize=24;" parent="96" vertex="1">
                    <mxGeometry y="1" width="230" height="48" relative="1" as="geometry">
                        <mxPoint y="-48" as="offset"/>
                    </mxGeometry>
                </mxCell>
                <mxCell id="103" value="Update" style="shape=rect;strokeColor=none;fillColor=#F6BBDE;fontColor=#6A2F52;fontStyle=1;fontSize=13;" parent="102" vertex="1">
                    <mxGeometry x="1" y="1" width="69" height="29" relative="1" as="geometry">
                        <mxPoint x="-220" y="-40" as="offset"/>
                    </mxGeometry>
                </mxCell>
                <mxCell id="104" value="Delete" style="shape=rect;strokeColor=none;fillColor=#F37DC3;fontColor=#8C155C;fontStyle=1;fontSize=13;" parent="102" vertex="1">
                    <mxGeometry x="1" y="1" width="70" height="36" relative="1" as="geometry">
                        <mxPoint x="-75" y="-42" as="offset"/>
                    </mxGeometry>
                </mxCell>
                <mxCell id="105" value="" style="shape=rect;fillColor=none;shadow=1;fontSize=24;" parent="76" vertex="1">
                    <mxGeometry x="90" y="430" width="230" height="270" as="geometry"/>
                </mxCell>
                <mxCell id="106" value="" style="shape=rect;strokeColor=#eeeeee;fillColor=#ffffff;resizeWidth=1;fontSize=24;" parent="105" vertex="1">
                    <mxGeometry width="230" height="70" relative="1" as="geometry"/>
                </mxCell>
                <mxCell id="107" value="" style="shape=ellipse;strokeColor=none;fillColor=#999999;fontSize=24;" parent="106" vertex="1">
                    <mxGeometry width="40" height="40" relative="1" as="geometry">
                        <mxPoint x="15" y="15" as="offset"/>
                    </mxGeometry>
                </mxCell>
                <mxCell id="108" value="Title" style="text;fontSize=24;" parent="106" vertex="1">
                    <mxGeometry width="235" height="20" relative="1" as="geometry">
                        <mxPoint x="65" y="15" as="offset"/>
                    </mxGeometry>
                </mxCell>
                <mxCell id="109" value="Subhead" style="text;fontColor=#999999;fontSize=24;" parent="106" vertex="1">
                    <mxGeometry width="235" height="20" relative="1" as="geometry">
                        <mxPoint x="65" y="35" as="offset"/>
                    </mxGeometry>
                </mxCell>
                <mxCell id="110" value="Greyhound divisively hello couldly wonderfully marginally far upon excluding." style="shape=rect;strokeColor=#eeeeee;fillColor=#ffffff;;whiteSpace=wrap;align=left;spacingLeft=16;fontColor=#666666;verticalAlign=top;spacingTop=10;fontSize=13;spacingRight=16;container=1;" parent="105" vertex="1">
                    <mxGeometry y="178.57142857142858" width="230" height="91.42857142857146" as="geometry"/>
                </mxCell>
                <mxCell id="111" value="" style="shape=rect;strokeColor=#eeeeee;fillColor=#ffffff;;whiteSpace=wrap;align=left;spacingLeft=14;fontColor=#BDBDBD;resizeWidth=1;fontSize=24;" parent="105" vertex="1">
                    <mxGeometry y="1" width="230" height="48" relative="1" as="geometry">
                        <mxPoint y="-48" as="offset"/>
                    </mxGeometry>
                </mxCell>
                <mxCell id="112" value="Update" style="shape=rect;strokeColor=none;fillColor=#F6BBDE;fontColor=#6A2F52;fontStyle=1;fontSize=13;" parent="111" vertex="1">
                    <mxGeometry x="1" y="1" width="69" height="29" relative="1" as="geometry">
                        <mxPoint x="-220" y="-40" as="offset"/>
                    </mxGeometry>
                </mxCell>
                <mxCell id="113" value="Delete" style="shape=rect;strokeColor=none;fillColor=#F37DC3;fontColor=#8C155C;fontStyle=1;fontSize=13;" parent="111" vertex="1">
                    <mxGeometry x="1" y="1" width="70" height="36" relative="1" as="geometry">
                        <mxPoint x="-75" y="-42" as="offset"/>
                    </mxGeometry>
                </mxCell>
                <mxCell id="114" value="" style="shape=rect;fillColor=none;shadow=1;fontSize=24;" parent="76" vertex="1">
                    <mxGeometry x="350" y="430" width="230" height="270" as="geometry"/>
                </mxCell>
                <mxCell id="115" value="" style="shape=rect;strokeColor=#eeeeee;fillColor=#ffffff;resizeWidth=1;fontSize=24;" parent="114" vertex="1">
                    <mxGeometry width="230" height="70" relative="1" as="geometry"/>
                </mxCell>
                <mxCell id="116" value="" style="shape=ellipse;strokeColor=none;fillColor=#999999;fontSize=24;" parent="115" vertex="1">
                    <mxGeometry width="40" height="40" relative="1" as="geometry">
                        <mxPoint x="15" y="15" as="offset"/>
                    </mxGeometry>
                </mxCell>
                <mxCell id="117" value="Title" style="text;fontSize=24;" parent="115" vertex="1">
                    <mxGeometry width="235" height="20" relative="1" as="geometry">
                        <mxPoint x="65" y="15" as="offset"/>
                    </mxGeometry>
                </mxCell>
                <mxCell id="118" value="Subhead" style="text;fontColor=#999999;fontSize=24;" parent="115" vertex="1">
                    <mxGeometry width="235" height="20" relative="1" as="geometry">
                        <mxPoint x="65" y="35" as="offset"/>
                    </mxGeometry>
                </mxCell>
                <mxCell id="119" value="Greyhound divisively hello couldly wonderfully marginally far upon excluding." style="shape=rect;strokeColor=#eeeeee;fillColor=#ffffff;;whiteSpace=wrap;align=left;spacingLeft=16;fontColor=#666666;verticalAlign=top;spacingTop=10;fontSize=13;spacingRight=16;container=1;" parent="114" vertex="1">
                    <mxGeometry y="178.57142857142858" width="230" height="91.42857142857146" as="geometry"/>
                </mxCell>
                <mxCell id="120" value="" style="shape=rect;strokeColor=#eeeeee;fillColor=#ffffff;;whiteSpace=wrap;align=left;spacingLeft=14;fontColor=#BDBDBD;resizeWidth=1;fontSize=24;" parent="114" vertex="1">
                    <mxGeometry y="1" width="230" height="48" relative="1" as="geometry">
                        <mxPoint y="-48" as="offset"/>
                    </mxGeometry>
                </mxCell>
                <mxCell id="121" value="Update" style="shape=rect;strokeColor=none;fillColor=#F6BBDE;fontColor=#6A2F52;fontStyle=1;fontSize=13;" parent="120" vertex="1">
                    <mxGeometry x="1" y="1" width="69" height="29" relative="1" as="geometry">
                        <mxPoint x="-220" y="-40" as="offset"/>
                    </mxGeometry>
                </mxCell>
                <mxCell id="122" value="Delete" style="shape=rect;strokeColor=none;fillColor=#F37DC3;fontColor=#8C155C;fontStyle=1;fontSize=13;" parent="120" vertex="1">
                    <mxGeometry x="1" y="1" width="70" height="36" relative="1" as="geometry">
                        <mxPoint x="-75" y="-42" as="offset"/>
                    </mxGeometry>
                </mxCell>
                <mxCell id="123" value="" style="shape=rect;fillColor=none;shadow=1;fontSize=24;" parent="76" vertex="1">
                    <mxGeometry x="610" y="430" width="230" height="270" as="geometry"/>
                </mxCell>
                <mxCell id="124" value="" style="shape=rect;strokeColor=#eeeeee;fillColor=#ffffff;resizeWidth=1;fontSize=24;" parent="123" vertex="1">
                    <mxGeometry width="230" height="70" relative="1" as="geometry"/>
                </mxCell>
                <mxCell id="125" value="" style="shape=ellipse;strokeColor=none;fillColor=#999999;fontSize=24;" parent="124" vertex="1">
                    <mxGeometry width="40" height="40" relative="1" as="geometry">
                        <mxPoint x="15" y="15" as="offset"/>
                    </mxGeometry>
                </mxCell>
                <mxCell id="126" value="Title" style="text;fontSize=24;" parent="124" vertex="1">
                    <mxGeometry width="235" height="20" relative="1" as="geometry">
                        <mxPoint x="65" y="15" as="offset"/>
                    </mxGeometry>
                </mxCell>
                <mxCell id="127" value="Subhead" style="text;fontColor=#999999;fontSize=24;" parent="124" vertex="1">
                    <mxGeometry width="235" height="20" relative="1" as="geometry">
                        <mxPoint x="65" y="35" as="offset"/>
                    </mxGeometry>
                </mxCell>
                <mxCell id="128" style="edgeStyle=none;html=1;exitX=0.5;exitY=0;exitDx=0;exitDy=0;fontSize=24;" parent="123" source="129" target="123" edge="1">
                    <mxGeometry relative="1" as="geometry"/>
                </mxCell>
                <mxCell id="129" value="Greyhound divisively hello couldly wonderfully marginally far upon excluding." style="shape=rect;strokeColor=#eeeeee;fillColor=#ffffff;;whiteSpace=wrap;align=left;spacingLeft=16;fontColor=#666666;verticalAlign=top;spacingTop=10;fontSize=13;spacingRight=16;container=1;" parent="123" vertex="1">
                    <mxGeometry y="178.57142857142858" width="230" height="91.42857142857146" as="geometry"/>
                </mxCell>
                <mxCell id="130" value="" style="shape=rect;strokeColor=#eeeeee;fillColor=#ffffff;;whiteSpace=wrap;align=left;spacingLeft=14;fontColor=#BDBDBD;resizeWidth=1;fontSize=24;" parent="123" vertex="1">
                    <mxGeometry y="1" width="230" height="48" relative="1" as="geometry">
                        <mxPoint y="-48" as="offset"/>
                    </mxGeometry>
                </mxCell>
                <mxCell id="131" value="Update" style="shape=rect;strokeColor=none;fillColor=#F6BBDE;fontColor=#6A2F52;fontStyle=1;fontSize=13;" parent="130" vertex="1">
                    <mxGeometry x="1" y="1" width="69" height="29" relative="1" as="geometry">
                        <mxPoint x="-220" y="-40" as="offset"/>
                    </mxGeometry>
                </mxCell>
                <mxCell id="132" value="Delete" style="shape=rect;strokeColor=none;fillColor=#F37DC3;fontColor=#8C155C;fontStyle=1;fontSize=13;" parent="130" vertex="1">
                    <mxGeometry x="1" y="1" width="70" height="36" relative="1" as="geometry">
                        <mxPoint x="-75" y="-42" as="offset"/>
                    </mxGeometry>
                </mxCell>
                <mxCell id="133" value="Text" style="text;html=1;strokeColor=none;fillColor=none;align=center;verticalAlign=middle;whiteSpace=wrap;rounded=0;fontSize=24;" parent="76" vertex="1">
                    <mxGeometry x="440" y="210" width="60" height="30" as="geometry"/>
                </mxCell>
                <mxCell id="134" value="&lt;font style=&quot;font-size: 44px;&quot;&gt;&lt;b&gt;&lt;u&gt;Cold&amp;nbsp; Coffee&lt;/u&gt;&lt;/b&gt;&lt;/font&gt;" style="text;html=1;strokeColor=none;fillColor=none;align=center;verticalAlign=middle;whiteSpace=wrap;rounded=0;fontSize=24;" parent="76" vertex="1">
                    <mxGeometry x="325" y="40" width="290" height="30" as="geometry"/>
                </mxCell>
                <mxCell id="135" style="edgeStyle=none;html=1;exitX=0.5;exitY=1;exitDx=0;exitDy=0;entryX=0.403;entryY=0;entryDx=0;entryDy=0;entryPerimeter=0;fontSize=21;" edge="1" parent="1" source="5" target="77">
                    <mxGeometry relative="1" as="geometry">
                        <Array as="points">
                            <mxPoint x="630" y="270"/>
                        </Array>
                    </mxGeometry>
                </mxCell>
                <mxCell id="136" style="edgeStyle=none;html=1;exitX=0.5;exitY=1;exitDx=0;exitDy=0;entryX=0.5;entryY=0;entryDx=0;entryDy=0;fontSize=21;" edge="1" parent="1" source="3" target="8">
                    <mxGeometry relative="1" as="geometry">
                        <Array as="points">
                            <mxPoint x="200" y="270"/>
                        </Array>
                    </mxGeometry>
                </mxCell>
            </root>
        </mxGraphModel>
    </diagram>
</mxfile>